<svg xmlns="http://www.w3.org/2000/svg" viewBox="0 0 64 64">
  <defs>
    <linearGradient id="g" x1="0%" y1="0%" x2="100%" y2="100%">
      <stop offset="0%" style="stop-color:#3b82f6"/>
      <stop offset="100%" style="stop-color:#8b5cf6"/>
    </linearGradient>
  </defs>
  <circle cx="32" cy="32" r="30" fill="url(#g)"/>
  <path d="M32 16c-1.5 0-2.8 0.8-3.5 2L20 32l8.5 14c0.7 1.2 2 2 3.5 2s2.8-0.8 3.5-2L44 32l-8.5-14C34.8 16.8 33.5 16 32 16z" fill="white" opacity="0.9"/>
  <circle cx="32" cy="32" r="5" fill="white"/>
  <path d="M32 12l2 4-2 2-2-2z" fill="white" opacity="0.7"/>
  <path d="M32 52l-2-4 2-2 2 2z" fill="white" opacity="0.7"/>
  <path d="M12 32l4-2 2 2-2 2z" fill="white" opacity="0.7"/>
  <path d="M52 32l-4 2-2-2 2-2z" fill="white" opacity="0.7"/>
</svg>
